<?xml version="1.0" encoding="utf-8"?>
<!-- Generator: Adobe Illustrator 23.0.3, SVG Export Plug-In . SVG Version: 6.00 Build 0)  -->
<svg version="1.1" id="Layer_1" xmlns="http://www.w3.org/2000/svg" xmlns:xlink="http://www.w3.org/1999/xlink" x="0px" y="0px"
	 viewBox="0 0 50 50" style="enable-background:new 0 0 50 50;" xml:space="preserve">
<g>
	<g>
		<g>
			<g>
				<path d="M40.4,2H11.2C9.4,2,7.9,3.5,7.9,5.3v39.3c0,1.8,1.5,3.3,3.3,3.3h29.1c1.8,0,3.3-1.5,3.3-3.3V5.3C43.7,3.5,42.2,2,40.4,2
					z M41.8,44.7c0,0.8-0.6,1.4-1.4,1.4H11.2c-0.8,0-1.4-0.6-1.4-1.4V34.2h32V44.7z M41.8,32.2h-32v-1.9h32L41.8,32.2L41.8,32.2z
					 M24.4,28.3v-9.4c0-0.7,0.6-1.4,1.4-1.4h0.2c0.7,0,1.4,0.6,1.4,1.4v9.4H24.4z M41.8,28.3h-4.8v-9.4c0-6.1-5-11-11-11h-0.2
					c-6.1,0-11,5-11,11c0,0.5,0.4,1,1,1c0.5,0,1-0.4,1-1c0-5,4.1-9.1,9.1-9.1h0.2c5,0,9.1,4.1,9.1,9.1v9.4h-1.9v-9.4
					c0-0.5-0.4-1-1-1c-0.5,0-1,0.4-1,1v9.4h-1.9v-9.4c0-1.8-1.5-3.3-3.3-3.3h-0.2c-1.8,0-3.3,1.5-3.3,3.3v9.4h-1.9v-9.4
					c0-2.9,2.3-5.2,5.2-5.2h0.2c0.8,0,1.5,0.2,2.2,0.5c0.5,0.2,1.1,0,1.3-0.5c0.2-0.5,0-1.1-0.5-1.3c-0.9-0.4-1.9-0.6-3-0.6h-0.2
					c-3.9,0-7.2,3.2-7.2,7.2v9.4H9.8v-23c0-0.8,0.6-1.4,1.4-1.4h29.1c0.8,0,1.4,0.6,1.4,1.4L41.8,28.3L41.8,28.3z"/>
				<path d="M31.2,16.7c0.3,0,0.5-0.1,0.7-0.3c0.2-0.2,0.3-0.4,0.3-0.7c0-0.3-0.1-0.5-0.3-0.7c-0.2-0.2-0.4-0.3-0.7-0.3
					c-0.3,0-0.5,0.1-0.7,0.3c-0.2,0.2-0.3,0.4-0.3,0.7c0,0.3,0.1,0.5,0.3,0.7C30.7,16.6,30.9,16.7,31.2,16.7z"/>
				<path d="M14.7,24.2c0,0.5,0.4,1,1,1c0.5,0,1-0.4,1-1v-0.3c0-0.5-0.4-1-1-1s-1,0.4-1,1V24.2z"/>
				<path d="M15.6,38.2c0.5,0,1-0.4,1-1v-0.1c0-0.5-0.4-1-1-1c-0.5,0-1,0.4-1,1v0.1C14.7,37.8,15.1,38.2,15.6,38.2z"/>
				<path d="M36,38.2c0.5,0,1-0.4,1-1v-0.1c0-0.5-0.4-1-1-1s-1,0.4-1,1v0.1C35,37.8,35.4,38.2,36,38.2z"/>
				<path d="M32.1,38.2c0.5,0,1-0.4,1-1v-0.1c0-0.5-0.4-1-1-1c-0.5,0-1,0.4-1,1v0.1C31.1,37.8,31.6,38.2,32.1,38.2z"/>
				<path d="M28.5,38.2c0.5,0,1-0.4,1-1v-0.1c0-0.5-0.4-1-1-1s-1,0.4-1,1v0.1C27.5,37.8,27.9,38.2,28.5,38.2z"/>
				<path d="M23.4,38.2c0.5,0,1-0.4,1-1v-0.1c0-0.5-0.4-1-1-1c-0.5,0-1,0.4-1,1v0.1C22.4,37.8,22.9,38.2,23.4,38.2z"/>
				<path d="M19.5,38.2c0.5,0,1-0.4,1-1v-0.1c0-0.5-0.4-1-1-1c-0.5,0-1,0.4-1,1v0.1C18.5,37.8,19,38.2,19.5,38.2z"/>
				<path d="M15.6,41.9c0.5,0,1-0.4,1-1v-0.1c0-0.5-0.4-1-1-1c-0.5,0-1,0.4-1,1v0.1C14.7,41.5,15.1,41.9,15.6,41.9z"/>
				<path d="M36,41.9c0.5,0,1-0.4,1-1v-0.1c0-0.5-0.4-1-1-1s-1,0.4-1,1v0.1C35,41.5,35.4,41.9,36,41.9z"/>
				<path d="M32.1,41.9c0.5,0,1-0.4,1-1v-0.1c0-0.5-0.4-1-1-1c-0.5,0-1,0.4-1,1v0.1C31.1,41.5,31.6,41.9,32.1,41.9z"/>
				<path d="M28.5,41.9c0.5,0,1-0.4,1-1v-0.1c0-0.5-0.4-1-1-1s-1,0.4-1,1v0.1C27.5,41.5,27.9,41.9,28.5,41.9z"/>
				<path d="M23.4,41.9c0.5,0,1-0.4,1-1v-0.1c0-0.5-0.4-1-1-1c-0.5,0-1,0.4-1,1v0.1C22.4,41.5,22.9,41.9,23.4,41.9z"/>
				<path d="M19.5,41.9c0.5,0,1-0.4,1-1v-0.1c0-0.5-0.4-1-1-1c-0.5,0-1,0.4-1,1v0.1C18.5,41.5,19,41.9,19.5,41.9z"/>
			</g>
		</g>
	</g>
</g>
</svg>
