<?xml version="1.0" encoding="utf-8"?>
<!-- Generator: Adobe Illustrator 23.0.3, SVG Export Plug-In . SVG Version: 6.00 Build 0)  -->
<svg version="1.1" id="Layer_1" xmlns="http://www.w3.org/2000/svg" xmlns:xlink="http://www.w3.org/1999/xlink" x="0px" y="0px"
	 viewBox="0 0 50 50" style="enable-background:new 0 0 50 50;" xml:space="preserve">
<style type="text/css">
	.st0{fill:url(#SVGID_1_);}
	.st1{fill:url(#SVGID_2_);}
	.st2{fill:url(#SVGID_3_);}
	.st3{fill:url(#SVGID_4_);}
	.st4{fill:url(#SVGID_5_);}
	.st5{fill:url(#SVGID_6_);}
	.st6{fill:url(#SVGID_7_);}
	.st7{fill:url(#SVGID_8_);}
	.st8{fill:url(#SVGID_9_);}
	.st9{fill:url(#SVGID_10_);}
	.st10{fill:url(#SVGID_11_);}
	.st11{fill:url(#SVGID_12_);}
	.st12{fill:url(#SVGID_13_);}
	.st13{fill:url(#SVGID_14_);}
	.st14{fill:url(#SVGID_15_);}
	.st15{fill:url(#SVGID_16_);}
	.st16{fill:url(#SVGID_17_);}
	.st17{fill:url(#SVGID_18_);}
	.st18{fill:url(#SVGID_19_);}
	.st19{fill:url(#SVGID_20_);}
	.st20{fill:url(#SVGID_21_);}
	.st21{fill:url(#SVGID_22_);}
	.st22{fill:url(#SVGID_23_);}
	.st23{fill:url(#SVGID_24_);}
	.st24{fill:url(#SVGID_25_);}
	.st25{fill:url(#SVGID_26_);}
	.st26{fill:url(#SVGID_27_);}
	.st27{fill:url(#SVGID_28_);}
	.st28{fill:url(#SVGID_29_);}
	.st29{fill:url(#SVGID_30_);}
	.st30{fill:url(#SVGID_31_);}
	.st31{fill:url(#SVGID_32_);}
	.st32{fill:url(#SVGID_33_);}
	.st33{fill:url(#SVGID_34_);}
	.st34{fill:url(#SVGID_35_);}
	.st35{fill:url(#SVGID_36_);}
	.st36{fill:url(#SVGID_37_);}
	.st37{fill:url(#SVGID_38_);}
	.st38{fill:url(#SVGID_39_);}
	.st39{fill:url(#SVGID_40_);}
	.st40{fill:url(#SVGID_41_);}
	.st41{fill:url(#SVGID_42_);}
	.st42{fill:url(#SVGID_43_);}
	.st43{fill:url(#SVGID_44_);}
	.st44{fill:url(#SVGID_45_);}
	.st45{fill:url(#SVGID_46_);}
	.st46{fill:url(#SVGID_47_);}
	.st47{fill:url(#SVGID_48_);}
	.st48{fill:url(#SVGID_49_);}
	.st49{fill:url(#SVGID_50_);}
	.st50{fill:url(#SVGID_51_);}
	.st51{fill:url(#SVGID_52_);}
	.st52{fill:url(#SVGID_53_);}
	.st53{fill:url(#SVGID_54_);}
	.st54{fill:url(#SVGID_55_);}
	.st55{fill:url(#SVGID_56_);}
	.st56{fill:url(#SVGID_57_);}
	.st57{fill:url(#SVGID_58_);}
	.st58{fill:url(#SVGID_59_);}
	.st59{fill:url(#SVGID_60_);}
	.st60{fill:url(#SVGID_61_);}
	.st61{fill:url(#SVGID_62_);}
	.st62{fill:url(#SVGID_63_);}
	.st63{fill:url(#SVGID_64_);}
	.st64{fill:url(#SVGID_65_);}
	.st65{fill:url(#SVGID_66_);}
	.st66{fill:url(#SVGID_67_);}
	.st67{fill:url(#SVGID_68_);}
	.st68{fill:url(#SVGID_69_);}
	.st69{fill:url(#SVGID_70_);}
	.st70{fill:url(#SVGID_71_);}
	.st71{fill:url(#SVGID_72_);}
	.st72{fill:url(#SVGID_73_);}
	.st73{fill:#222B39;}
	.st74{fill:#43D3E8;}
	.st75{fill:#FD0134;}
	.st76{fill:url(#SVGID_74_);}
	.st77{fill:url(#SVGID_75_);}
	.st78{fill:url(#SVGID_76_);}
	.st79{fill:#FFFFFF;}
</style>
<g>
	<g>
		<g>
			<g>
				<path d="M40.4,2H11.2C9.4,2,7.9,3.5,7.9,5.3v39.3c0,1.8,1.5,3.3,3.3,3.3h29.1c1.8,0,3.3-1.5,3.3-3.3V5.3C43.7,3.5,42.2,2,40.4,2
					z M41.8,44.7c0,0.8-0.6,1.4-1.4,1.4H11.2c-0.8,0-1.4-0.6-1.4-1.4V34.2h32V44.7z M41.8,32.2h-32v-1.9h32L41.8,32.2L41.8,32.2z
					 M24.4,28.3v-9.4c0-0.7,0.6-1.4,1.4-1.4h0.2c0.7,0,1.4,0.6,1.4,1.4v9.4H24.4z M41.8,28.3h-4.8v-9.4c0-6.1-5-11-11-11h-0.2
					c-6.1,0-11,5-11,11c0,0.5,0.4,1,1,1c0.5,0,1-0.4,1-1c0-5,4.1-9.1,9.1-9.1h0.2c5,0,9.1,4.1,9.1,9.1v9.4h-1.9v-9.4
					c0-0.5-0.4-1-1-1c-0.5,0-1,0.4-1,1v9.4h-1.9v-9.4c0-1.8-1.5-3.3-3.3-3.3h-0.2c-1.8,0-3.3,1.5-3.3,3.3v9.4h-1.9v-9.4
					c0-2.9,2.3-5.2,5.2-5.2h0.2c0.8,0,1.5,0.2,2.2,0.5c0.5,0.2,1.1,0,1.3-0.5c0.2-0.5,0-1.1-0.5-1.3c-0.9-0.4-1.9-0.6-3-0.6h-0.2
					c-3.9,0-7.2,3.2-7.2,7.2v9.4H9.8v-23c0-0.8,0.6-1.4,1.4-1.4h29.1c0.8,0,1.4,0.6,1.4,1.4L41.8,28.3L41.8,28.3z"/>
				<path d="M31.2,16.7c0.3,0,0.5-0.1,0.7-0.3c0.2-0.2,0.3-0.4,0.3-0.7c0-0.3-0.1-0.5-0.3-0.7c-0.2-0.2-0.4-0.3-0.7-0.3
					c-0.3,0-0.5,0.1-0.7,0.3c-0.2,0.2-0.3,0.4-0.3,0.7c0,0.3,0.1,0.5,0.3,0.7C30.7,16.6,30.9,16.7,31.2,16.7z"/>
				<path d="M14.7,24.2c0,0.5,0.4,1,1,1c0.5,0,1-0.4,1-1v-0.3c0-0.5-0.4-1-1-1s-1,0.4-1,1V24.2z"/>
				<path d="M15.6,38.2c0.5,0,1-0.4,1-1v-0.1c0-0.5-0.4-1-1-1c-0.5,0-1,0.4-1,1v0.1C14.7,37.8,15.1,38.2,15.6,38.2z"/>
				<path d="M36,38.2c0.5,0,1-0.4,1-1v-0.1c0-0.5-0.4-1-1-1s-1,0.4-1,1v0.1C35,37.8,35.4,38.2,36,38.2z"/>
				<path d="M32.1,38.2c0.5,0,1-0.4,1-1v-0.1c0-0.5-0.4-1-1-1c-0.5,0-1,0.4-1,1v0.1C31.1,37.8,31.6,38.2,32.1,38.2z"/>
				<path d="M28.5,38.2c0.5,0,1-0.4,1-1v-0.1c0-0.5-0.4-1-1-1s-1,0.4-1,1v0.1C27.5,37.8,27.9,38.2,28.5,38.2z"/>
				<path d="M23.4,38.2c0.5,0,1-0.4,1-1v-0.1c0-0.5-0.4-1-1-1c-0.5,0-1,0.4-1,1v0.1C22.4,37.8,22.9,38.2,23.4,38.2z"/>
				<path d="M19.5,38.2c0.5,0,1-0.4,1-1v-0.1c0-0.5-0.4-1-1-1c-0.5,0-1,0.4-1,1v0.1C18.5,37.8,19,38.2,19.5,38.2z"/>
				<path d="M15.6,41.9c0.5,0,1-0.4,1-1v-0.1c0-0.5-0.4-1-1-1c-0.5,0-1,0.4-1,1v0.1C14.7,41.5,15.1,41.9,15.6,41.9z"/>
				<path d="M36,41.9c0.5,0,1-0.4,1-1v-0.1c0-0.5-0.4-1-1-1s-1,0.4-1,1v0.1C35,41.5,35.4,41.9,36,41.9z"/>
				<path d="M32.1,41.9c0.5,0,1-0.4,1-1v-0.1c0-0.5-0.4-1-1-1c-0.5,0-1,0.4-1,1v0.1C31.1,41.5,31.6,41.9,32.1,41.9z"/>
				<path d="M28.5,41.9c0.5,0,1-0.4,1-1v-0.1c0-0.5-0.4-1-1-1s-1,0.4-1,1v0.1C27.5,41.5,27.9,41.9,28.5,41.9z"/>
				<path d="M23.4,41.9c0.5,0,1-0.4,1-1v-0.1c0-0.5-0.4-1-1-1c-0.5,0-1,0.4-1,1v0.1C22.4,41.5,22.9,41.9,23.4,41.9z"/>
				<path d="M19.5,41.9c0.5,0,1-0.4,1-1v-0.1c0-0.5-0.4-1-1-1c-0.5,0-1,0.4-1,1v0.1C18.5,41.5,19,41.9,19.5,41.9z"/>
			</g>
		</g>
	</g>
</g>
</svg>
